<svg xmlns="http://www.w3.org/2000/svg" width="1135" height="1222" viewBox="0 0 1135 1222" font-family="Helvetica, Arial, sans-serif">
<rect width="1135" height="1222" fill="#141416"/>
<text x="60" y="34" fill="#eee" font-size="20" font-weight="bold">Neon LA 2049 — city plan (generated from src/data/city-layout.json)</text>
<text x="60" y="54" fill="#999" font-size="11">1 px = 50 m · grid = 5 km in engine metres (origin 34.0522, -118.2437; +X east, +Z south) · unlabelled dark land = basin sprawl</text>
<line x1="117.2" y1="100" x2="117.2" y2="1162" stroke="#222" stroke-width="1"/>
<text x="117.2" y="1176" fill="#666" font-size="10" text-anchor="middle">-30 km</text>
<line x1="217.2" y1="100" x2="217.2" y2="1162" stroke="#222" stroke-width="1"/>
<text x="217.2" y="1176" fill="#666" font-size="10" text-anchor="middle">-25 km</text>
<line x1="317.2" y1="100" x2="317.2" y2="1162" stroke="#222" stroke-width="1"/>
<text x="317.2" y="1176" fill="#666" font-size="10" text-anchor="middle">-20 km</text>
<line x1="417.2" y1="100" x2="417.2" y2="1162" stroke="#222" stroke-width="1"/>
<text x="417.2" y="1176" fill="#666" font-size="10" text-anchor="middle">-15 km</text>
<line x1="517.2" y1="100" x2="517.2" y2="1162" stroke="#222" stroke-width="1"/>
<text x="517.2" y="1176" fill="#666" font-size="10" text-anchor="middle">-10 km</text>
<line x1="617.2" y1="100" x2="617.2" y2="1162" stroke="#222" stroke-width="1"/>
<text x="617.2" y="1176" fill="#666" font-size="10" text-anchor="middle">-5 km</text>
<line x1="717.2" y1="100" x2="717.2" y2="1162" stroke="#222" stroke-width="1"/>
<text x="717.2" y="1176" fill="#666" font-size="10" text-anchor="middle">0 km</text>
<line x1="817.2" y1="100" x2="817.2" y2="1162" stroke="#222" stroke-width="1"/>
<text x="817.2" y="1176" fill="#666" font-size="10" text-anchor="middle">5 km</text>
<line x1="917.2" y1="100" x2="917.2" y2="1162" stroke="#222" stroke-width="1"/>
<text x="917.2" y="1176" fill="#666" font-size="10" text-anchor="middle">10 km</text>
<line x1="1017.2" y1="100" x2="1017.2" y2="1162" stroke="#222" stroke-width="1"/>
<text x="1017.2" y="1176" fill="#666" font-size="10" text-anchor="middle">15 km</text>
<line x1="60" y1="138.4" x2="1075" y2="138.4" stroke="#222" stroke-width="1"/>
<text x="54" y="138.4" fill="#666" font-size="10" text-anchor="end">-10</text>
<line x1="60" y1="238.4" x2="1075" y2="238.4" stroke="#222" stroke-width="1"/>
<text x="54" y="238.4" fill="#666" font-size="10" text-anchor="end">-5</text>
<line x1="60" y1="338.4" x2="1075" y2="338.4" stroke="#222" stroke-width="1"/>
<text x="54" y="338.4" fill="#666" font-size="10" text-anchor="end">0</text>
<line x1="60" y1="438.4" x2="1075" y2="438.4" stroke="#222" stroke-width="1"/>
<text x="54" y="438.4" fill="#666" font-size="10" text-anchor="end">5</text>
<line x1="60" y1="538.4" x2="1075" y2="538.4" stroke="#222" stroke-width="1"/>
<text x="54" y="538.4" fill="#666" font-size="10" text-anchor="end">10</text>
<line x1="60" y1="638.4" x2="1075" y2="638.4" stroke="#222" stroke-width="1"/>
<text x="54" y="638.4" fill="#666" font-size="10" text-anchor="end">15</text>
<line x1="60" y1="738.4" x2="1075" y2="738.4" stroke="#222" stroke-width="1"/>
<text x="54" y="738.4" fill="#666" font-size="10" text-anchor="end">20</text>
<line x1="60" y1="838.4" x2="1075" y2="838.4" stroke="#222" stroke-width="1"/>
<text x="54" y="838.4" fill="#666" font-size="10" text-anchor="end">25</text>
<line x1="60" y1="938.4" x2="1075" y2="938.4" stroke="#222" stroke-width="1"/>
<text x="54" y="938.4" fill="#666" font-size="10" text-anchor="end">30</text>
<line x1="60" y1="1038.4" x2="1075" y2="1038.4" stroke="#222" stroke-width="1"/>
<text x="54" y="1038.4" fill="#666" font-size="10" text-anchor="end">35</text>
<line x1="60" y1="1138.4" x2="1075" y2="1138.4" stroke="#222" stroke-width="1"/>
<text x="54" y="1138.4" fill="#666" font-size="10" text-anchor="end">40</text>
<ellipse cx="189.1" cy="232.7" rx="104" ry="64" transform="rotate(-15 189.1 232.7)" fill="#2a2a1e" stroke="#3a3a28"/>
<ellipse cx="318.2" cy="199.5" rx="96" ry="60" transform="rotate(-5 318.2 199.5)" fill="#2a2a1e" stroke="#3a3a28"/>
<ellipse cx="428.9" cy="177.4" rx="92" ry="52" transform="rotate(0 428.9 177.4)" fill="#2a2a1e" stroke="#3a3a28"/>
<ellipse cx="530.4" cy="173.0" rx="84" ry="44" transform="rotate(5 530.4 173.0)" fill="#2a2a1e" stroke="#3a3a28"/>
<ellipse cx="622.6" cy="166.3" rx="64" ry="52" transform="rotate(0 622.6 166.3)" fill="#2a2a1e" stroke="#3a3a28"/>
<ellipse cx="724.1" cy="272.5" rx="24" ry="32" transform="rotate(-20 724.1 272.5)" fill="#2a2a1e" stroke="#3a3a28"/>
<ellipse cx="493.5" cy="436.1" rx="36" ry="30" transform="rotate(0 493.5 436.1)" fill="#2a2a1e" stroke="#3a3a28"/>
<ellipse cx="493.5" cy="973.5" rx="124" ry="92" transform="rotate(0 493.5 973.5)" fill="#2a2a1e" stroke="#3a3a28"/>
<ellipse cx="862.4" cy="885.1" rx="18" ry="16" transform="rotate(0 862.4 885.1)" fill="#2a2a1e" stroke="#3a3a28"/>
<ellipse cx="973.1" cy="398.5" rx="48" ry="30" transform="rotate(0 973.1 398.5)" fill="#2a2a1e" stroke="#3a3a28"/>
<path d="M825.5,387.5 L945.4,409.6 L945.4,564.4 L825.5,564.4 Z" fill="#8a3a1c" fill-opacity="0.55" stroke="#8a3a1c" stroke-width="1.5"/>
<path d="M539.6,391.9 L724.1,398.5 L761.0,630.8 L539.6,630.8 Z" fill="#4a463f" fill-opacity="0.55" stroke="#4a463f" stroke-width="1.5"/>
<path d="M761.0,630.8 L1037.7,630.8 L1037.7,896.1 L761.0,896.1 Z" fill="#6a6860" fill-opacity="0.55" stroke="#6a6860" stroke-width="1.5"/>
<path d="M299.8,254.8 L668.7,276.9 L657.7,365.4 L539.6,391.9 L373.6,476.0 L281.4,387.5 Z" fill="#4a4a4a" fill-opacity="0.55" stroke="#4a4a4a" stroke-width="1.5"/>
<path d="M410.5,608.6 L761.0,630.8 L761.0,896.1 L484.3,874.0 L447.4,719.2 Z" fill="#6a4a2a" fill-opacity="0.55" stroke="#6a4a2a" stroke-width="1.5"/>
<path d="M797.9,896.1 L1000.8,896.1 L1000.8,1017.8 L797.9,995.6 Z" fill="#4a5a78" fill-opacity="0.55" stroke="#4a5a78" stroke-width="1.5"/>
<path d="M746.2,276.9 L927.0,321.1 L927.0,409.6 L744.4,387.5 Z" fill="#4a4a4a" fill-opacity="0.55" stroke="#4a4a4a" stroke-width="1.5"/>
<path d="M720.4,303.5 L746.2,316.7 L744.4,376.4 L705.6,391.9 L657.7,372.0 L668.7,330.0 Z" fill="#4a5a78" fill-opacity="0.55" stroke="#4a5a78" stroke-width="1.5"/>
<path d="M724.1,403.0 L825.5,409.6 L825.5,487.0 L724.1,487.0 Z" fill="#3e3834" fill-opacity="0.55" stroke="#3e3834" stroke-width="1.5"/>
<path d="M484.3,210.6 L650.3,221.6 L668.7,276.9 L465.8,265.9 Z" fill="#a03a8a" fill-opacity="0.55" stroke="#a03a8a" stroke-width="1.5"/>
<path d="M189.1,354.3 L281.4,387.5 L373.6,476.0 L410.5,564.4 L456.6,719.2 L484.3,851.9 L438.2,863.0 L419.7,763.4 L373.6,652.9 L314.6,531.2 L244.5,431.7 L161.5,374.2 Z" fill="#6e7a80" fill-opacity="0.55" stroke="#6e7a80" stroke-width="1.5"/>
<path d="M613.4,896.1 L890.1,896.1 L890.1,1006.7 L724.1,1050.9 L613.4,1073.1 Z" fill="#3a5a6a" fill-opacity="0.55" stroke="#3a5a6a" stroke-width="1.5"/>
<path d="M687.2,323.4 L707.5,330.0 L694.6,354.3 L678.0,358.7 L668.7,343.3 Z" fill="#555" fill-opacity="0.55" stroke="#888" stroke-width="1.5"/>
<path d="M711.2,323.4 L727.8,327.8 L724.1,343.3 L711.2,341.1 Z" fill="#8c8c9c" fill-opacity="0.55" stroke="#8c8c9c" stroke-width="1.5"/>
<path d="M703.8,336.6 L716.7,341.1 L699.2,370.2 L685.0,365.8 Z" fill="#555" fill-opacity="0.55" stroke="#888" stroke-width="1.5"/>
<path d="M727.8,338.8 L744.4,343.3 L742.5,387.5 L724.1,380.9 Z" fill="#7a5a3a" fill-opacity="0.55" stroke="#7a5a3a" stroke-width="1.5"/>
<path d="M373.6,557.8 L465.8,557.8 L465.8,608.6 L373.6,608.6 Z" fill="#3a6a8a" fill-opacity="0.55" stroke="#3a6a8a" stroke-width="1.5"/>
<path d="M716.7,338.8 L733.3,339.9 L731.4,352.1 L716.7,351.0 Z" fill="#555" fill-opacity="0.55" stroke="#888" stroke-width="1.5"/>
<path d="M923.3,754.6 L952.8,754.6 L952.8,778.9 L923.3,778.9 Z" fill="#8a8478" fill-opacity="0.55" stroke="#8a8478" stroke-width="1.5"/>
<path d="M60.0,365.4 L96.9,365.4 L170.7,374.2 L216.8,398.5 L248.2,431.7 L277.7,464.9 L299.8,498.1 L321.9,529.0 L336.7,557.8 L358.8,608.6 L379.1,652.9 L404.9,708.2 L427.1,763.4 L443.7,807.7 L443.7,851.9 L434.5,885.1 L410.5,918.2 L384.7,962.5 L410.5,1017.8 L465.8,1062.0 L521.2,1084.1 L594.9,1095.2 L641.1,1095.2 L687.2,1084.1 L724.1,1050.9 L779.4,1017.8 L825.5,995.6 L871.6,980.2 L936.2,1006.7 L982.3,1039.9 L1056.1,1095.2 L1093.0,1139.4 L1111.4,1161.5 L1111.4,1338.4 L-124.5,1338.4 L-124.5,365.4 Z" fill="#0c1a26" stroke="#2a4a66" stroke-width="1"/>
<path d="M650.3,111.1 L724.1,232.7 L746.2,299.0 L744.4,365.4 L742.5,431.7 L807.1,509.1 L834.7,608.6 L834.7,741.3 L788.6,874.0 L788.6,973.5" fill="none" stroke="#3a6a8a" stroke-width="2.2" stroke-linejoin="round"/>
<path d="M257.4,428.4 L336.7,403.0 L428.9,385.3 L484.3,380.9 L558.1,372.0 L631.8,365.4 L668.7,376.4 L714.8,394.1 L761.0,398.5 L816.3,376.4 L890.1,310.1" fill="none" stroke="#e0a040" stroke-opacity="0.75" stroke-width="1.5" stroke-linejoin="round"/>
<text x="631.8" y="365.4" fill="#e0a040" font-size="10" dx="4">I-10</text>
<path d="M705.6,299.0 L683.5,330.0 L663.2,365.4 L659.5,398.5 L648.4,476.0 L648.4,608.6 L639.2,741.3 L631.8,896.1 L641.1,1028.8" fill="none" stroke="#e0a040" stroke-opacity="0.75" stroke-width="1.6" stroke-linejoin="round"/>
<text x="648.4" y="476.0" fill="#e0a040" font-size="10" dx="4">I-110</text>
<path d="M484.3,122.1 L521.2,166.3 L558.1,232.7 L622.6,265.9 L705.6,299.0 L742.5,325.6 L770.2,354.3" fill="none" stroke="#e0a040" stroke-opacity="0.75" stroke-width="1.5" stroke-linejoin="round"/>
<text x="622.6" y="265.9" fill="#e0a040" font-size="10" dx="4">US-101</text>
<path d="M299.8,100.0 L345.9,299.0 L382.8,387.5 L428.9,476.0 L465.8,564.4 L484.3,608.6 L539.6,697.1 L631.8,763.4 L761.0,818.7 L890.1,840.8 L982.3,874.0 L1074.5,918.2" fill="none" stroke="#e0a040" stroke-opacity="0.75" stroke-width="1.6" stroke-linejoin="round"/>
<text x="539.6" y="697.1" fill="#e0a040" font-size="10" dx="4">I-405</text>
<path d="M668.7,166.3 L705.6,232.7 L761.0,299.0 L779.4,365.4 L816.3,403.0 L908.5,476.0 L982.3,542.3 L1074.5,608.6" fill="none" stroke="#e0a040" stroke-opacity="0.75" stroke-width="1.5" stroke-linejoin="round"/>
<text x="816.3" y="403.0" fill="#e0a040" font-size="10" dx="4">I-5</text>
<path d="M447.4,608.6 L650.3,608.6 L797.9,630.8 L945.4,652.9 L1074.5,663.9" fill="none" stroke="#e0a040" stroke-opacity="0.75" stroke-width="1.5" stroke-linejoin="round"/>
<text x="797.9" y="630.8" fill="#e0a040" font-size="10" dx="4">I-105</text>
<path d="M853.2,310.1 L853.2,398.5 L853.2,564.4 L816.3,719.2 L788.6,896.1 L797.9,962.5" fill="none" stroke="#e0a040" stroke-opacity="0.75" stroke-width="1.5" stroke-linejoin="round"/>
<text x="816.3" y="719.2" fill="#e0a040" font-size="10" dx="4">I-710</text>
<path d="M133.8,368.7 L172.5,377.5 L219.6,401.9 L251.5,434.4 L280.4,467.1 L302.9,499.8 L325.3,530.1 L340.0,558.9 L362.2,609.1 L382.8,653.3 L408.6,708.2 L430.8,763.0 L447.4,806.6 L447.7,850.8 L442.8,878.4" fill="none" stroke="#c8d0d8" stroke-width="3.4" stroke-linejoin="round"/>
<text x="340.0" y="558.9" fill="#c8d0d8" font-size="11" dx="-8" text-anchor="end">Sepulveda Sea Wall (90 m)</text>
<path d="M622.6,1077.5 L683.5,1077.5 L722.2,1044.3 L777.6,1012.2 L824.6,990.1 L871.6,975.7 L938.0,1002.3 L984.2,1035.5 L1057.9,1090.7" fill="none" stroke="#c8d0d8" stroke-width="3" stroke-linejoin="round"/>
<text x="824.6" y="990.1" fill="#c8d0d8" font-size="11" dx="-8" text-anchor="end">Harbor Sea Wall (southern continuation) (75 m)</text>
<text x="707.2" y="348.4" fill="#fff" fill-opacity="0.85" font-size="10" text-anchor="middle">Downtown Megablocks · S4</text>
<text x="687.2" y="341.9" fill="#fff" fill-opacity="0.85" font-size="10" text-anchor="middle">Financial District Megatowers · S3</text>
<text x="718.5" y="333.9" fill="#fff" fill-opacity="0.85" font-size="10" text-anchor="middle">Civic Center (LAPD HQ) · S5</text>
<text x="724.5" y="345.5" fill="#fff" fill-opacity="0.85" font-size="10" text-anchor="middle">Little Tokyo Night Market · S2</text>
<text x="701.1" y="353.4" fill="#fff" fill-opacity="0.85" font-size="10" text-anchor="middle">Broadway Neon Canyon · S6</text>
<text x="734.7" y="362.6" fill="#fff" fill-opacity="0.85" font-size="10" text-anchor="middle">Arts District Works · S9</text>
<text x="774.8" y="446.6" fill="#fff" fill-opacity="0.85" font-size="10" text-anchor="middle">Wallace Corporation Precinct (Vernon) · S7</text>
<text x="885.5" y="481.5" fill="#fff" fill-opacity="0.85" font-size="10" text-anchor="middle">Southeast Refinery Belt · S15</text>
<text x="641.1" y="513.0" fill="#fff" fill-opacity="0.85" font-size="10" text-anchor="middle">South LA Megablocks · S12</text>
<text x="899.3" y="763.4" fill="#fff" fill-opacity="0.85" font-size="10" text-anchor="middle">Lakewood / Downey Megablocks · S11</text>
<text x="938.0" y="766.8" fill="#fff" fill-opacity="0.85" font-size="10" text-anchor="middle">K&#39;s Megablock · S8</text>
<text x="470.1" y="358.7" fill="#fff" fill-opacity="0.85" font-size="10" text-anchor="middle">Westside Sprawl (Mid-Wilshire to Culver) · S13</text>
<text x="567.3" y="243.7" fill="#fff" fill-opacity="0.85" font-size="10" text-anchor="middle">Hollywood Entertainment Strip · S16</text>
<text x="345.6" y="580.8" fill="#fff" fill-opacity="0.85" font-size="10" text-anchor="middle">Grey Coast (behind the Sea Wall) · S10</text>
<text x="419.7" y="583.2" fill="#fff" fill-opacity="0.85" font-size="10" text-anchor="middle">LAX Off-World Spaceport · S17</text>
<text x="572.8" y="745.8" fill="#fff" fill-opacity="0.85" font-size="10" text-anchor="middle">South Bay Refineries · S18</text>
<text x="746.2" y="984.6" fill="#fff" fill-opacity="0.85" font-size="10" text-anchor="middle">Harbor &amp; Container Port · S19</text>
<text x="899.3" y="951.4" fill="#fff" fill-opacity="0.85" font-size="10" text-anchor="middle">Long Beach Secondary Core · S20</text>
<text x="836.1" y="348.8" fill="#fff" fill-opacity="0.85" font-size="10" text-anchor="middle">East LA Sprawl · S21</text>
<rect x="765.9" y="410.8" width="64" height="64" transform="rotate(0 797.9 442.8)" fill="none" stroke="#ff9a2e" stroke-width="1.2"/>
<circle cx="797.9" cy="442.8" r="2.5" fill="#ff9a2e"/>
<text x="797.9" y="442.8" dx="6" dy="-4" fill="#ffcf8a" font-size="11">Wallace Corporation Earth Headquarters (3500 m)</text>
<rect x="807.1999999999999" y="383.9" width="7.2" height="7.2" transform="rotate(0 810.8 387.5)" fill="none" stroke="#ff9a2e" stroke-width="1.2"/>
<circle cx="810.8" cy="387.5" r="2.5" fill="#ff9a2e"/>
<text x="810.8" y="387.5" dx="6" dy="-4" fill="#ffcf8a" font-size="11">Wallace Tower A (1400 m)</text>
<rect x="827.8000000000001" y="481.5" width="6.6" height="6.6" transform="rotate(0 831.1 484.8)" fill="none" stroke="#ff9a2e" stroke-width="1.2"/>
<circle cx="831.1" cy="484.8" r="2.5" fill="#ff9a2e"/>
<text x="831.1" y="484.8" dx="6" dy="-4" fill="#ffcf8a" font-size="11">Wallace Tower B (1250 m)</text>
<rect x="743.2" y="495.1" width="6" height="6" transform="rotate(0 746.2 498.1)" fill="none" stroke="#ff9a2e" stroke-width="1.2"/>
<circle cx="746.2" cy="498.1" r="2.5" fill="#ff9a2e"/>
<text x="746.2" y="498.1" dx="6" dy="-4" fill="#ffcf8a" font-size="11">Wallace Tower C (1100 m)</text>
<rect x="858.9000000000001" y="461.3" width="23.6" height="23.6" transform="rotate(45 870.7 473.1)" fill="none" stroke="#ff9a2e" stroke-width="1.2"/>
<circle cx="870.7" cy="473.1" r="2.5" fill="#ff9a2e"/>
<text x="870.7" y="473.1" dx="6" dy="-4" fill="#ffcf8a" font-size="11">Old Corporate Pyramid (north) (1000 m)</text>
<rect x="882.6" y="482.8" width="21.6" height="21.6" transform="rotate(45 893.4 493.6)" fill="none" stroke="#ff9a2e" stroke-width="1.2"/>
<circle cx="893.4" cy="493.6" r="2.5" fill="#ff9a2e"/>
<text x="893.4" y="493.6" dx="6" dy="-4" fill="#ffcf8a" font-size="11">Old Corporate Pyramid (south) (860 m)</text>
<rect x="715.0799999999999" y="338.1" width="1.44" height="2" transform="rotate(38 715.8 339.1)" fill="none" stroke="#ff9a2e" stroke-width="1.2"/>
<circle cx="715.8" cy="339.1" r="2.5" fill="#ff9a2e"/>
<text x="715.8" y="339.1" dx="6" dy="-4" fill="#ffcf8a" font-size="11">LAPD Headquarters (2049) (216 m)</text>
<rect x="718.65" y="334.65000000000003" width="0.9" height="0.9" transform="rotate(38 719.1 335.1)" fill="none" stroke="#ff9a2e" stroke-width="1.2"/>
<circle cx="719.1" cy="335.1" r="2.5" fill="#ff9a2e"/>
<text x="719.1" y="335.1" dx="6" dy="-4" fill="#ffcf8a" font-size="11">Old City Hall (heritage) (138 m)</text>
<rect x="709.42" y="341.71999999999997" width="0.76" height="0.96" transform="rotate(38 709.8 342.2)" fill="none" stroke="#ff9a2e" stroke-width="1.2"/>
<circle cx="709.8" cy="342.2" r="2.5" fill="#ff9a2e"/>
<text x="709.8" y="342.2" dx="6" dy="-4" fill="#ffcf8a" font-size="11">Bradbury Building (exterior) (27 m)</text>
<rect x="706.0360000000001" y="347.964" width="0.32799999999999996" height="0.07200000000000001" transform="rotate(38 706.2 348.0)" fill="none" stroke="#ff9a2e" stroke-width="1.2"/>
<circle cx="706.2" cy="348.0" r="2.5" fill="#ff9a2e"/>
<text x="706.2" y="348.0" dx="6" dy="-4" fill="#ffcf8a" font-size="11">Veil House footbridge (11.2 m)</text>
<rect x="693.1" y="337.84000000000003" width="3" height="1.92" transform="rotate(38 694.6 338.8)" fill="none" stroke="#ff9a2e" stroke-width="1.2"/>
<circle cx="694.6" cy="338.8" r="2.5" fill="#ff9a2e"/>
<text x="694.6" y="338.8" dx="6" dy="-4" fill="#ffcf8a" font-size="11">Financial District megatowers (520–1,020 m)</text>
<rect x="687.9" y="343.9" width="2.2" height="2.2" transform="rotate(38 689.0 345.0)" fill="none" stroke="#ff9a2e" stroke-width="1.2"/>
<circle cx="689.0" cy="345.0" r="2.5" fill="#ff9a2e"/>
<rect x="700.3000000000001" y="331.3" width="2.6" height="2.6" transform="rotate(38 701.6 332.6)" fill="none" stroke="#ff9a2e" stroke-width="1.2"/>
<circle cx="701.6" cy="332.6" r="2.5" fill="#ff9a2e"/>
<rect x="682.6999999999999" y="349.6" width="2.4" height="2.4" transform="rotate(38 683.9 350.8)" fill="none" stroke="#ff9a2e" stroke-width="1.2"/>
<circle cx="683.9" cy="350.8" r="2.5" fill="#ff9a2e"/>
<rect x="687.6999999999999" y="327.59999999999997" width="3.4" height="1.6" transform="rotate(38 689.4 328.4)" fill="none" stroke="#ff9a2e" stroke-width="1.2"/>
<circle cx="689.4" cy="328.4" r="2.5" fill="#ff9a2e"/>
<rect x="693.6" y="355.8" width="2" height="1.4" transform="rotate(38 694.6 356.5)" fill="none" stroke="#ff9a2e" stroke-width="1.2"/>
<circle cx="694.6" cy="356.5" r="2.5" fill="#ff9a2e"/>
<rect x="675.8" y="347.40000000000003" width="2.4" height="1.4" transform="rotate(38 677.0 348.1)" fill="none" stroke="#ff9a2e" stroke-width="1.2"/>
<circle cx="677.0" cy="348.1" r="2.5" fill="#ff9a2e"/>
<rect x="699.0400000000001" y="339.98" width="1.32" height="1.24" transform="rotate(38 699.7 340.6)" fill="none" stroke="#ff9a2e" stroke-width="1.2"/>
<circle cx="699.7" cy="340.6" r="2.5" fill="#ff9a2e"/>
<text x="699.7" y="340.6" dx="6" dy="-4" fill="#ffcf8a" font-size="11">2019-era Ziggurat Tower A (420 m)</text>
<rect x="684.48" y="334.72" width="1.24" height="1.16" transform="rotate(38 685.1 335.3)" fill="none" stroke="#ff9a2e" stroke-width="1.2"/>
<circle cx="685.1" cy="335.3" r="2.5" fill="#ff9a2e"/>
<text x="685.1" y="335.3" dx="6" dy="-4" fill="#ffcf8a" font-size="11">2019-era Ziggurat Tower B (360 m)</text>
<rect x="690.3199999999999" y="352.02000000000004" width="1.16" height="1.16" transform="rotate(38 690.9 352.6)" fill="none" stroke="#ff9a2e" stroke-width="1.2"/>
<circle cx="690.9" cy="352.6" r="2.5" fill="#ff9a2e"/>
<text x="690.9" y="352.6" dx="6" dy="-4" fill="#ffcf8a" font-size="11">2019-era Ziggurat Tower C (310 m)</text>
<rect x="696.88" y="339.58" width="0.44" height="0.24" transform="rotate(38 697.1 339.7)" fill="none" stroke="#ff9a2e" stroke-width="1.2"/>
<circle cx="697.1" cy="339.7" r="2.5" fill="#ff9a2e"/>
<text x="697.1" y="339.7" dx="6" dy="-4" fill="#ffcf8a" font-size="11">Skybridge MT-1 / Ziggurat A (342 m)</text>
<rect x="686.14" y="347.76" width="0.52" height="0.28" transform="rotate(38 686.4 347.9)" fill="none" stroke="#ff9a2e" stroke-width="1.2"/>
<circle cx="686.4" cy="347.9" r="2.5" fill="#ff9a2e"/>
<text x="686.4" y="347.9" dx="6" dy="-4" fill="#ffcf8a" font-size="11">Skybridge MT-2 / MT-4 (436 m)</text>
<rect x="686.98" y="331.68" width="0.44" height="0.24" transform="rotate(38 687.2 331.8)" fill="none" stroke="#ff9a2e" stroke-width="1.2"/>
<circle cx="687.2" cy="331.8" r="2.5" fill="#ff9a2e"/>
<text x="687.2" y="331.8" dx="6" dy="-4" fill="#ffcf8a" font-size="11">Skybridge MT-5 / Ziggurat B (336 m)</text>
<rect x="697.82" y="335.53999999999996" width="0.56" height="0.32" transform="rotate(38 698.1 335.7)" fill="none" stroke="#ff9a2e" stroke-width="1.2"/>
<circle cx="698.1" cy="335.7" r="2.5" fill="#ff9a2e"/>
<text x="698.1" y="335.7" dx="6" dy="-4" fill="#ffcf8a" font-size="11">Skybridge MT-1 / MT-3 (560 m)</text>
<rect x="935.7" y="765.9499999999999" width="4.6" height="1.7" transform="rotate(0 938.0 766.8)" fill="none" stroke="#ff9a2e" stroke-width="1.2"/>
<circle cx="938.0" cy="766.8" r="2.5" fill="#ff9a2e"/>
<text x="938.0" y="766.8" dx="6" dy="-4" fill="#ffcf8a" font-size="11">K&#39;s Apartment Megabuilding (185 m)</text>
<rect x="387.2" y="570" width="52" height="26" transform="rotate(0 413.2 583.0)" fill="none" stroke="#ff9a2e" stroke-width="1.2"/>
<circle cx="413.2" cy="583.0" r="2.5" fill="#ff9a2e"/>
<text x="413.2" y="583.0" dx="6" dy="-4" fill="#ffcf8a" font-size="11">LAX Off-World Launch Gantries (420 m)</text>
<rect x="405.5" y="637.4" width="32" height="22" transform="rotate(0 421.5 648.4)" fill="none" stroke="#ff9a2e" stroke-width="1.2"/>
<circle cx="421.5" cy="648.4" r="2.5" fill="#ff9a2e"/>
<text x="421.5" y="648.4" dx="6" dy="-4" fill="#ffcf8a" font-size="11">El Segundo Refinery Flare Stacks (140 m)</text>
<circle cx="723.7" cy="345.0" r="2" fill="#29d8ff"/>
<circle cx="725.5" cy="346.1" r="2" fill="#29d8ff"/>
<circle cx="706.2" cy="348.0" r="2" fill="#29d8ff"/>
<circle cx="709.2" cy="341.7" r="2" fill="#29d8ff"/>
<circle cx="938.0" cy="766.8" r="2" fill="#29d8ff"/>
<circle cx="906.7" cy="778.9" r="2" fill="#29d8ff"/>
<circle cx="635.5" cy="422.9" r="2" fill="#29d8ff"/>
<circle cx="389.3" cy="357.9" r="2" fill="#29d8ff"/>
<circle cx="515.8" cy="576.0" r="2" fill="#29d8ff"/>
<circle cx="848.1" cy="430.6" r="2" fill="#29d8ff"/>
<circle cx="733.7" cy="363.7" r="2" fill="#29d8ff"/>
<circle cx="744.4" cy="363.2" r="2" fill="#29d8ff"/>
<circle cx="797.9" cy="396.3" r="2" fill="#29d8ff"/>
<circle cx="797.9" cy="409.0" r="2" fill="#29d8ff"/>
<circle cx="797.9" cy="410.7" r="2" fill="#29d8ff"/>
<circle cx="342.2" cy="551.1" r="2" fill="#29d8ff"/>
<circle cx="698.8" cy="321.4" r="2" fill="#29d8ff"/>
<circle cx="717.1" cy="337.6" r="2" fill="#29d8ff"/>
<circle cx="716.4" cy="338.2" r="2" fill="#29d8ff"/>
<circle cx="715.8" cy="338.1" r="2" fill="#29d8ff"/>
<circle cx="718.5" cy="336.0" r="2" fill="#29d8ff"/>
<circle cx="717.4" cy="337.1" r="2" fill="#29d8ff"/>
<circle cx="696.3" cy="340.0" r="2" fill="#29d8ff"/>
<circle cx="689.4" cy="323.8" r="2" fill="#29d8ff"/>
<circle cx="1056.1" cy="1028.8" r="2" fill="#29d8ff"/>
<rect x="825" y="1041" width="12" height="12" fill="#ff9a2e"/><text x="843" y="1051" fill="#ccc" font-size="11">landmark footprint (to scale)</text>
<rect x="825" y="1057" width="12" height="12" fill="#29d8ff"/><text x="843" y="1067" fill="#ccc" font-size="11">point of interest (interiors / set pieces)</text>
<rect x="825" y="1073" width="12" height="12" fill="#e0a040"/><text x="843" y="1083" fill="#ccc" font-size="11">freeway trench (open corridor)</text>
<rect x="825" y="1089" width="12" height="12" fill="#c8d0d8"/><text x="843" y="1099" fill="#ccc" font-size="11">sea wall</text>
<rect x="825" y="1105" width="12" height="12" fill="#3a6a8a"/><text x="843" y="1115" fill="#ccc" font-size="11">LA River channel</text>
<rect x="825" y="1121" width="12" height="12" fill="#2a2a1e"/><text x="843" y="1131" fill="#ccc" font-size="11">hills (gaussian height bumps)</text>
<line x1="60" y1="1198" x2="260" y2="1198" stroke="#ccc" stroke-width="3"/><text x="60" y="1214" fill="#ccc" font-size="11">10 km</text>
<text x="1075" y="90" fill="#ccc" font-size="14" text-anchor="end">N ↑</text>
</svg>